<?xml version="1.0" standalone="no"?>
<!DOCTYPE svg PUBLIC "-//W3C//DTD SVG 20010904//EN"
 "http://www.w3.org/TR/2001/REC-SVG-20010904/DTD/svg10.dtd">
<svg version="1.0" xmlns="http://www.w3.org/2000/svg"
 width="263.000000pt" height="263.000000pt" viewBox="0 0 263.000000 263.000000"
 preserveAspectRatio="xMidYMid meet">
<metadata>
Created by potrace 1.11, written by Peter Selinger 2001-2013
</metadata>
<g transform="translate(0.000000,263.000000) scale(0.100000,-0.100000)"
fill="#000000" stroke="none">
<path d="M1145 2620 c-369 -56 -677 -238 -891 -530 -102 -139 -167 -280 -216
-470 -26 -99 -31 -137 -33 -270 -5 -240 33 -417 134 -619 180 -361 491 -605
891 -699 25 -6 59 -14 75 -18 48 -11 314 -13 380 -3 33 5 74 11 92 14 65 10
231 68 329 117 235 116 446 323 575 565 37 69 108 259 115 308 2 11 9 56 17
100 16 87 19 311 5 384 -5 25 -11 62 -14 81 -10 60 -65 222 -102 300 -112 235
-290 429 -521 569 -109 66 -276 129 -415 157 -88 18 -339 26 -421 14z m470
-280 c334 -47 639 -279 776 -590 73 -164 81 -210 86 -527 l5 -283 -66 0 -66 0
0 120 0 120 -30 0 -30 0 0 -120 c0 -89 -4 -129 -15 -150 -27 -53 -101 -75
-153 -46 -30 16 -62 65 -63 96 l0 25 -11 -25 c-42 -98 -73 -155 -113 -208 -93
-124 -223 -219 -365 -267 -104 -36 -112 -37 -230 -41 -215 -7 -402 64 -557
209 -75 71 -155 187 -185 272 -21 57 -23 58 -28 30 -10 -46 -28 -73 -60 -90
-57 -29 -115 -14 -151 41 -16 25 -19 47 -19 152 l0 122 -30 0 -30 0 0 -120 0
-120 -71 0 -71 0 5 283 c4 267 6 287 31 377 62 220 184 401 372 550 105 84
314 171 449 187 22 2 41 6 43 8 8 8 513 3 577 -5z"/>
<path d="M961 2175 c-272 -60 -483 -222 -596 -460 -53 -111 -76 -205 -82 -342
l-6 -123 32 0 31 0 0 91 c0 75 4 98 20 124 20 32 63 55 102 55 34 0 79 -31 93
-62 13 -31 13 -31 20 -7 14 47 68 155 99 199 114 164 293 284 486 324 94 19
260 15 350 -8 222 -60 417 -223 510 -430 17 -36 30 -72 30 -81 0 -23 16 -18
28 11 12 26 65 54 102 54 34 0 79 -28 95 -60 10 -20 15 -58 15 -120 l0 -90 31
0 30 0 -2 93 c-7 399 -239 704 -621 818 -67 21 -98 22 -388 25 -242 2 -330 -1
-379 -11z"/>
<path d="M1165 1923 c-84 -18 -140 -40 -215 -83 -65 -38 -160 -115 -160 -129
0 -9 194 -101 213 -101 7 0 26 23 41 52 28 52 120 182 154 216 63 66 62 66
-33 45z"/>
<path d="M1386 1908 c17 -18 43 -46 58 -63 30 -34 101 -139 137 -202 19 -34
28 -41 44 -36 44 13 215 96 215 104 0 5 -30 33 -66 63 -104 86 -240 145 -374
161 l-44 5 30 -32z"/>
<path d="M1240 1864 c-50 -54 -122 -153 -164 -226 l-27 -47 53 -15 c72 -21
165 -34 178 -26 7 4 10 66 8 184 l-3 178 -45 -48z"/>
<path d="M1330 1728 l0 -186 48 4 c76 6 182 35 182 49 0 7 -26 53 -59 101 -53
82 -87 125 -148 192 l-23 25 0 -185z"/>
<path d="M712 1616 c-39 -59 -87 -164 -98 -216 -12 -55 -23 -116 -23 -137 -1
-23 -1 -23 163 -23 l164 0 6 43 c3 23 8 61 11 85 3 24 17 77 31 118 25 73 25
94 1 94 -7 0 -58 22 -113 49 l-101 49 -41 -62z"/>
<path d="M1810 1645 c-36 -19 -91 -44 -122 -56 -32 -12 -58 -27 -58 -33 0 -6
10 -38 21 -71 23 -68 27 -84 35 -138 3 -21 7 -46 9 -55 2 -9 4 -25 4 -34 1
-16 16 -18 172 -18 l170 0 -6 53 c-15 122 -62 247 -127 338 l-33 47 -65 -33z"/>
<path d="M1017 1512 c-23 -57 -45 -149 -52 -214 l-6 -58 165 0 166 0 0 130 c0
72 -1 130 -2 130 -2 1 -21 3 -43 6 -43 6 -157 29 -191 39 -18 6 -24 0 -37 -33z"/>
<path d="M1533 1534 c-37 -11 -73 -17 -168 -29 -11 -1 -23 -3 -27 -4 -5 0 -8
-59 -8 -131 l0 -130 165 0 165 0 -5 55 c-7 68 -51 226 -68 241 -9 8 -23 8 -54
-2z"/>
<path d="M594 1142 c13 -122 48 -218 119 -328 l40 -61 116 54 c64 30 118 56
119 58 2 2 -8 38 -22 81 -15 42 -29 93 -31 113 -3 20 -7 47 -10 61 -2 14 -4
37 -4 53 l-1 27 -166 0 -166 0 6 -58z"/>
<path d="M964 1138 c10 -95 57 -258 75 -258 3 0 27 7 53 15 54 16 107 25 161
27 l37 1 0 139 0 138 -166 0 -166 0 6 -62z"/>
<path d="M1330 1066 c0 -149 -3 -142 70 -145 19 -1 70 -10 114 -22 43 -11 80
-18 81 -17 16 19 54 181 62 261 l5 57 -166 0 -166 0 0 -134z"/>
<path d="M1699 1173 c-4 -81 -19 -161 -44 -235 -13 -39 -23 -73 -22 -73 1 -1
27 -12 57 -24 30 -13 83 -38 118 -56 l62 -33 29 35 c65 79 125 232 137 351 l6
62 -171 0 -171 0 -1 -27z"/>
<path d="M1215 879 c-28 -3 -77 -14 -108 -23 l-58 -17 27 -47 c44 -76 121
-183 169 -235 l45 -49 0 185 c0 139 -3 186 -12 189 -7 2 -36 1 -63 -3z"/>
<path d="M1330 698 l0 -191 21 19 c70 63 228 292 215 312 -9 15 -98 36 -193
46 l-43 4 0 -190z"/>
<path d="M898 778 c-60 -28 -108 -55 -108 -59 0 -15 118 -107 182 -143 57 -32
159 -65 246 -80 l34 -6 -54 63 c-69 80 -95 116 -147 205 -24 39 -44 72 -45 72
0 -1 -49 -24 -108 -52z"/>
<path d="M1594 792 c-42 -81 -140 -222 -179 -257 -6 -5 -17 -18 -24 -27 -12
-17 -11 -17 20 -12 165 30 286 87 396 187 18 17 33 33 33 37 0 6 -148 79 -201
99 -23 8 -27 6 -45 -27z"/>
</g>
</svg>
